<svg width="32" height="32" viewBox="0 0 32 32" fill="none" xmlns="http://www.w3.org/2000/svg">
    <path fill-rule="evenodd" clip-rule="evenodd" d="M16 0C24.8365 0 32 7.16348 32 16C32 24.8365 24.8365 32 16 32C7.16348 32 0 24.8365 0 16C0 7.16348 7.16348 0 16 0Z" fill="#902067"/>
    <path d="M13.0493 19.1973V21.0896H5.46619V19.5847L9.33679 15.9294C9.74759 15.5379 10.0249 15.2005 10.1681 14.9187C10.3116 14.6365 10.3829 14.3571 10.3829 14.0797C10.3829 13.6782 10.2467 13.3702 9.97415 13.1553C9.70203 12.9401 9.30291 12.8324 8.77721 12.8324C8.33778 12.8324 7.94149 12.9159 7.58793 13.0832C7.23437 13.2505 6.93766 13.5012 6.699 13.8358L5.00781 12.7461C5.39927 12.1632 5.93947 11.7072 6.62765 11.3771C7.31581 11.0477 8.10396 10.8828 8.99289 10.8828C9.73871 10.8828 10.3906 11.005 10.9498 11.2481C11.5089 11.492 11.9435 11.8358 12.2539 12.2805C12.5648 12.7248 12.72 13.2481 12.72 13.8504C12.72 14.395 12.6051 14.9062 12.3757 15.3839C12.1467 15.8616 11.702 16.4063 11.0425 17.0183L8.73449 19.1973H13.0493ZM20.7571 16.9469H18.2628V19.3839H16.4136V16.9469H13.9338V15.1981H16.4136V12.7611H18.2628V15.1981H20.7571V16.9469ZM25.3545 11.0549V21.0892H23.032V12.9183H21.0252V11.0545H25.3545V11.0549Z" fill="#FBFBFB"/>
</svg>
