<svg width="77" height="155" viewBox="0 0 77 155" fill="none" xmlns="http://www.w3.org/2000/svg">
    <g opacity="0.3">
        <path d="M47.7 118.125C40.3945 135.966 45.4113 155 45.4113 155C45.4113 155 62.2648 145.132 69.5704 127.291C76.8759 109.45 71.8592 90.4165 71.8592 90.4165C71.8592 90.4165 54.9825 100.284 47.7 118.125Z" fill="white"/>
        <path d="M36.8539 47.6864C19.0129 40.3809 0.00260162 45.3977 0.00260162 45.3977C0.00260162 45.3977 9.87009 62.2512 27.7112 69.5568C45.5523 76.8623 64.5859 71.8456 64.5859 71.8456C64.5859 71.8456 54.6717 54.992 36.8539 47.6864Z" fill="white"/>
        <path d="M27.7112 85.4428C9.87009 92.7483 0.00260162 109.602 0.00260162 109.602C0.00260162 109.602 19.0363 114.619 36.8774 107.313C54.7184 100.008 64.5859 83.154 64.5859 83.154C64.5859 83.154 45.5289 78.1372 27.7112 85.4428Z" fill="white"/>
        <path d="M69.5704 27.7086C62.2649 9.86749 45.4113 0 45.4113 0C45.4113 0 40.3945 19.0337 47.7 36.8748C55.0055 54.7158 71.8592 64.5833 71.8592 64.5833C71.8592 64.5833 76.876 45.5497 69.5704 27.7086Z" fill="white"/>
    </g>
</svg>
