<svg width="22" height="22" viewBox="0 0 22 22" fill="none" xmlns="http://www.w3.org/2000/svg">
    <path d="M1 0.25C2.96839 0.25 4.05354 1.34155 4.51172 2.25H21C21.2224 2.25 21.4337 2.34879 21.5762 2.51953C21.7184 2.69013 21.7779 2.91522 21.7383 3.13379L19.7383 14.1338C19.7378 14.1367 19.7359 14.1397 19.7354 14.1426C19.7321 14.1593 19.726 14.1751 19.7217 14.1914C19.7143 14.2194 19.7067 14.2469 19.6963 14.2734C19.6883 14.2936 19.6785 14.3127 19.6689 14.332C19.6571 14.3559 19.645 14.3791 19.6309 14.4014C19.6207 14.4174 19.609 14.4321 19.5977 14.4473C19.5819 14.4683 19.5657 14.4886 19.5479 14.5078C19.535 14.5217 19.5217 14.535 19.5078 14.5479C19.4863 14.5677 19.4641 14.5863 19.4404 14.6035C19.4272 14.6132 19.4143 14.623 19.4004 14.6318C19.3769 14.6468 19.3523 14.6596 19.3271 14.6719C19.3097 14.6804 19.2926 14.6891 19.2744 14.6963C19.245 14.7079 19.2146 14.7158 19.1836 14.7236C19.1692 14.7273 19.1553 14.7326 19.1406 14.7354C19.1332 14.7368 19.1257 14.7381 19.1182 14.7393C19.0796 14.7454 19.0403 14.75 19 14.75H4.23047C3.43479 14.75 2.93292 14.9264 2.64844 15.1416C2.39117 15.3363 2.25 15.6067 2.25 16C2.25 16.3933 2.39117 16.6637 2.64844 16.8584C2.93292 17.0736 3.43479 17.25 4.23047 17.25H18.5C19.7426 17.25 20.75 18.2574 20.75 19.5C20.75 20.7426 19.7426 21.75 18.5 21.75C17.2574 21.75 16.25 20.7426 16.25 19.5C16.25 19.2367 16.2977 18.9848 16.3809 18.75H10.6191C10.7023 18.9848 10.75 19.2367 10.75 19.5C10.75 20.7426 9.74264 21.75 8.5 21.75C7.25736 21.75 6.25 20.7426 6.25 19.5C6.25 19.2367 6.29775 18.9848 6.38086 18.75H4.23047C3.24235 18.75 2.37883 18.5355 1.74414 18.0557C1.08234 17.5551 0.75 16.8253 0.75 16C0.75 15.1747 1.08234 14.4449 1.74414 13.9443C2.37883 13.4645 3.24235 13.25 4.23047 13.25H5.10156L3.26758 3.16211C3.15373 2.74889 2.56536 1.75 1 1.75C0.585786 1.75 0.25 1.41421 0.25 1C0.25 0.585786 0.585786 0.25 1 0.25ZM6.62598 13.25H18.374L20.1016 3.75H4.89844L6.62598 13.25Z" fill="#902067"/>
</svg>
