<svg width="24" height="24" viewBox="0 0 24 24" fill="none" xmlns="http://www.w3.org/2000/svg">
    <path d="M9.40039 13.25C10.1457 13.2502 10.7498 13.8543 10.75 14.5996V20.4004C10.7498 21.1457 10.1457 21.7498 9.40039 21.75H3.59961C2.85433 21.7498 2.25021 21.1457 2.25 20.4004V14.5996C2.25021 13.8543 2.85433 13.2502 3.59961 13.25H9.40039ZM20.4004 13.25C21.1457 13.2502 21.7498 13.8543 21.75 14.5996V20.4004C21.7498 21.1457 21.1457 21.7498 20.4004 21.75H14.5996C13.8543 21.7498 13.2502 21.1457 13.25 20.4004V14.5996C13.2502 13.8543 13.8543 13.2502 14.5996 13.25H20.4004ZM3.75 20.25H9.25V14.75H3.75V20.25ZM14.75 20.25H20.25V14.75H14.75V20.25ZM9.40039 2.25C10.1457 2.25021 10.7498 2.85433 10.75 3.59961V9.40039C10.7498 10.1457 10.1457 10.7498 9.40039 10.75H3.59961C2.85433 10.7498 2.25021 10.1457 2.25 9.40039V3.59961C2.25021 2.85433 2.85433 2.25021 3.59961 2.25H9.40039ZM20.4004 2.25C21.1457 2.25021 21.7498 2.85433 21.75 3.59961V9.40039C21.7498 10.1457 21.1457 10.7498 20.4004 10.75H14.5996C13.8543 10.7498 13.2502 10.1457 13.25 9.40039V3.59961C13.2502 2.85433 13.8543 2.25021 14.5996 2.25H20.4004ZM3.75 9.25H9.25V3.75H3.75V9.25ZM14.75 9.25H20.25V3.75H14.75V9.25Z" fill="#FBFBFB"/>
</svg>
