<svg width="18" height="18" viewBox="0 0 18 18" fill="none" xmlns="http://www.w3.org/2000/svg">
    <path d="M15.7744 5.88184C16.1144 5.94161 16.342 6.26551 16.2822 6.60547L14.6201 16.0605C14.4275 17.1563 13.4748 17.9551 12.3623 17.9551H5.6377C4.52513 17.9551 3.57254 17.1563 3.37988 16.0605L1.71777 6.60547C1.658 6.26551 1.88562 5.94161 2.22559 5.88184C2.56532 5.82234 2.88937 6.04897 2.94922 6.38867L4.61133 15.8438C4.6989 16.3418 5.13201 16.7051 5.6377 16.7051H12.3623C12.8679 16.7051 13.3011 16.3418 13.3887 15.8438L15.0508 6.38867C15.1106 6.04897 15.4347 5.82234 15.7744 5.88184ZM10.1455 0.0390625C11.4111 0.0390625 12.4373 1.06458 12.4375 2.33008V3.37207H16.5C16.8452 3.37207 17.125 3.65189 17.125 3.99707C17.125 4.34225 16.8452 4.62207 16.5 4.62207H1.5C1.15482 4.62207 0.875 4.34225 0.875 3.99707C0.875 3.65189 1.15482 3.37207 1.5 3.37207H5.5625V2.33008C5.56268 1.06457 6.58895 0.0390625 7.85449 0.0390625H10.1455ZM7.85449 1.28906C7.2793 1.28906 6.81268 1.75493 6.8125 2.33008V3.37207H11.1875V2.33008C11.1873 1.75492 10.7207 1.28906 10.1455 1.28906H7.85449Z" fill="#222222"/>
</svg>
