<svg width="32" height="32" viewBox="0 0 32 32" fill="none" xmlns="http://www.w3.org/2000/svg">
    <path d="M0 16C0 7.16348 7.16347 0 16 0C24.8365 0 32 7.16348 32 16C32 24.8365 24.8365 32 16 32C7.16347 32 0 24.8365 0 16Z" fill="#C6D600"/>
    <path fill-rule="evenodd" clip-rule="evenodd" d="M15.045 12.5975C15.6025 14.1367 15.7738 13.3498 16.0661 12.868C16.7035 11.8158 17.1683 11.12 17.9432 10.2282C18.0798 10.0488 18.7978 9.31065 19.0018 9.31065C19.1994 9.31065 19.249 9.47756 19.249 9.62833L18.3096 10.9833C17.9835 11.4719 17.3961 12.5161 17.1433 13.0627C17.0571 13.2482 16.6019 14.2516 16.6019 14.3927C16.6019 14.66 16.9635 14.8172 17.286 14.8728C24.3028 16.079 23.0865 8.30642 24.5713 6.41204C24.9627 5.88795 24.6785 5.83756 23.8371 5.78071C21.48 5.62187 19.5299 5.82868 17.4376 7.07642C15.536 8.21127 14.252 10.406 15.045 12.5975ZM10.9188 22.2306V23.5191H5.54688V16.5814H10.7898V17.8698H7.14253V19.3764H10.3637V20.6253H7.14253V22.2306H10.9188L10.9188 22.2306ZM15.4977 23.6384C14.7906 23.6384 14.1512 23.4844 13.5795 23.1772C13.0079 22.87 12.5588 22.4439 12.2318 21.8984C11.9049 21.3538 11.7416 20.7378 11.7416 20.0504C11.7416 19.3635 11.9049 18.7471 12.2318 18.202C12.5588 17.6565 13.0079 17.2308 13.5795 16.9236C14.1512 16.616 14.7938 16.4628 15.5074 16.4628C16.1089 16.4628 16.6523 16.5685 17.1381 16.7797C17.6235 16.991 18.0315 17.2953 18.3616 17.6916L17.3308 18.643C16.8619 18.1012 16.2806 17.8303 15.5864 17.8303C15.157 17.8303 14.7741 17.9242 14.437 18.1125C14.1004 18.3008 13.8376 18.564 13.6493 18.9007C13.461 19.2373 13.3667 19.6207 13.3667 20.0504C13.3667 20.4798 13.461 20.8632 13.6493 21.1998C13.8376 21.5372 14.1004 21.7997 14.437 21.9879C14.7741 22.1762 15.157 22.2701 15.5864 22.2701C16.2806 22.2701 16.8619 21.9964 17.3308 21.4477L18.3616 22.3995C18.0315 22.8023 17.6219 23.1095 17.1329 23.3207C16.6438 23.5328 16.0988 23.6384 15.4977 23.6384H15.4977ZM22.6531 23.6384C21.9331 23.6384 21.2836 23.4828 20.7059 23.1724C20.1274 22.8616 19.6751 22.4338 19.3477 21.8888C19.0212 21.3437 18.8575 20.7309 18.8575 20.0504C18.8575 19.3695 19.0212 18.7567 19.3477 18.2121C19.6751 17.6666 20.1274 17.2389 20.7059 16.9281C21.2836 16.618 21.9331 16.4628 22.6531 16.4628C23.3731 16.4628 24.0206 16.6181 24.5959 16.9281C25.1707 17.2389 25.6235 17.6666 25.9533 18.2121C26.2838 18.7567 26.4491 19.3695 26.4491 20.0504C26.4491 20.7309 26.2838 21.3437 25.9533 21.8888C25.6235 22.4338 25.1707 22.8615 24.5959 23.1724C24.0206 23.4828 23.3731 23.6384 22.6531 23.6384ZM22.6531 22.2701C23.0627 22.2701 23.4328 22.1762 23.7634 21.9879C24.0939 21.7997 24.3528 21.5372 24.5414 21.1998C24.7297 20.8632 24.8236 20.4798 24.8236 20.0504C24.8236 19.6207 24.7297 19.2373 24.5414 18.9007C24.3528 18.564 24.0939 18.3008 23.7634 18.1125C23.4328 17.9242 23.0627 17.8303 22.6531 17.8303C22.2439 17.8303 21.8734 17.9242 21.5432 18.1125C21.2127 18.3008 20.9539 18.564 20.7652 18.9007C20.5769 19.2373 20.4826 19.6207 20.4826 20.0504C20.4826 20.4798 20.5769 20.8632 20.7652 21.1998C20.9539 21.5372 21.2127 21.7997 21.5432 21.9879C21.8734 22.1762 22.2439 22.2701 22.6531 22.2701ZM7.25137 10.8281C7.29611 11.0216 7.40013 11.0389 7.53962 11.1405C8.24915 11.6557 8.78211 12.8382 9.25177 13.6267C10.198 14.9055 11.8601 15.8041 13.4384 15.145C13.9875 14.9152 13.3372 14.46 12.8918 13.9033C12.4616 13.3655 11.8335 12.7333 11.3038 12.3157C10.9615 12.0456 11.0724 11.7811 11.3449 11.7811C11.7549 11.7811 13.2477 13.043 13.7001 13.4481C14.21 13.9605 14.481 14.4374 14.6849 13.8154C14.9752 12.9281 14.5834 13.3868 14.3294 11.9726C14.3068 11.8505 14.279 11.6803 14.2733 11.5695C14.2576 11.2034 14.3346 11.2812 14.1246 11.0478C13.0816 9.88675 11.436 9.65816 9.95566 9.86175C9.13244 9.97423 8.32978 10.233 7.61581 10.5927C7.44165 10.6801 7.36868 10.6926 7.25137 10.8281V10.8281Z" fill="#FBFBFB"/>
</svg>
