<svg width="32" height="32" viewBox="0 0 32 32" fill="none" xmlns="http://www.w3.org/2000/svg">
    <path d="M16 32C24.8365 32 32 24.8365 32 16C32 7.16348 24.8365 0 16 0C7.16348 0 0 7.16348 0 16C0 24.8365 7.16348 32 16 32Z" fill="#902067"/>
    <path d="M8.41276 17.1725C11.1223 16.0497 14.0149 16.8206 14.0149 16.8206C14.0149 16.8206 12.5147 19.4108 9.80481 20.5331C7.09568 21.6555 4.20312 20.8851 4.20312 20.8851C4.20312 20.8851 5.70322 18.2948 8.41276 17.1725Z" fill="#FBFBFB"/>
    <path d="M22.194 11.4692C24.9035 10.3469 27.7961 11.1173 27.7961 11.1173C27.7961 11.1173 26.296 13.7071 23.5861 14.8294C20.8769 15.9522 17.9844 15.1818 17.9844 15.1818C17.9844 15.1818 19.4841 12.592 22.194 11.4692Z" fill="#FBFBFB"/>
    <path d="M17.1723 23.5865C16.05 20.8769 16.8204 17.9844 16.8204 17.9844C16.8204 17.9844 19.4106 19.4845 20.5325 22.1948C21.6549 24.9039 20.8845 27.7965 20.8845 27.7965C20.8845 27.7965 18.2943 26.296 17.1723 23.5865Z" fill="#FBFBFB"/>
    <path d="M11.4694 9.80522C10.3466 7.09569 11.1174 4.20312 11.1174 4.20312C11.1174 4.20312 13.7076 5.70322 14.83 8.41316C15.9527 11.1223 15.1823 14.0149 15.1823 14.0149C15.1823 14.0149 12.5921 12.5148 11.4694 9.80521V9.80522Z" fill="#FBFBFB"/>
    <path d="M11.4694 22.194C12.5921 19.4845 15.1823 17.9844 15.1823 17.9844C15.1823 17.9844 15.9527 20.8769 14.83 23.5861C13.708 26.2952 11.1174 27.7961 11.1174 27.7961C11.1174 27.7961 10.3466 24.9039 11.4694 22.194V22.194Z" fill="#FBFBFB"/>
    <path d="M17.1725 8.41276C18.2945 5.70323 20.8851 4.20312 20.8851 4.20312C20.8851 4.20312 21.6555 7.09569 20.5331 9.80481C19.4112 12.5143 16.8206 14.0149 16.8206 14.0149C16.8206 14.0149 16.0497 11.1223 17.1725 8.41275V8.41276Z" fill="#FBFBFB"/>
    <path d="M22.194 20.5328C19.4845 19.4108 17.9844 16.8206 17.9844 16.8206C17.9844 16.8206 20.8765 16.0498 23.5861 17.1722C26.2952 18.2945 27.7961 20.8847 27.7961 20.8847C27.7961 20.8847 24.9035 21.6555 22.194 20.5328H22.194Z" fill="#FBFBFB"/>
    <path d="M8.41276 14.83C5.70323 13.7072 4.20312 11.117 4.20312 11.117C4.20312 11.117 7.09569 10.347 9.80482 11.4694C12.5143 12.5913 14.0148 15.1815 14.0148 15.1815C14.0148 15.1815 11.1227 15.9527 8.41275 14.8304V14.83L8.41276 14.83Z" fill="#FBFBFB"/>
</svg>
