<svg width="80" height="81" viewBox="0 0 80 81" fill="none" xmlns="http://www.w3.org/2000/svg">
    <path d="M36.0242 14.7771C39.8314 23.9699 37.217 33.7771 37.217 33.7771C37.217 33.7771 28.4339 28.6928 24.6267 19.5C20.8195 10.3073 23.434 0.5 23.434 0.5C23.434 0.5 32.217 5.59636 36.0242 14.7771Z" fill="#902067"/>
    <path d="M55.3739 61.5C59.1811 70.6928 56.5666 80.5 56.5666 80.5C56.5666 80.5 47.7836 75.4157 43.9764 66.2229C40.1692 57.0301 42.7836 47.2229 42.7836 47.2229C42.7836 47.2229 51.5787 52.3073 55.3739 61.5Z" fill="#902067"/>
    <path d="M14.2891 44.4767C23.4818 40.6694 33.2769 43.2839 33.2769 43.2839C33.2769 43.2839 28.1926 52.067 18.9999 55.8743C9.80715 59.6815 0 57.067 0 57.067C0 57.067 5.09637 48.2839 14.2891 44.4767Z" fill="#902067"/>
    <path d="M60.9997 25.128C70.1924 21.3208 79.9876 23.9352 79.9876 23.9352C79.9876 23.9352 74.9033 32.7183 65.7106 36.5255C56.5179 40.3328 46.7107 37.7184 46.7107 37.7184C46.7107 37.7184 51.8191 28.9352 60.9997 25.128Z" fill="#902067"/>
    <path d="M18.9999 25.128C28.1926 28.9352 33.2769 37.7184 33.2769 37.7184C33.2769 37.7184 23.4697 40.3328 14.277 36.5255C5.08431 32.7183 0 23.9352 0 23.9352C0 23.9352 9.8192 21.3208 18.9999 25.128Z" fill="#902067"/>
    <path d="M65.723 44.4767C74.9157 48.2839 80 57.067 80 57.067C80 57.067 70.1928 59.6815 61.0001 55.8743C51.8074 52.067 46.7231 43.2839 46.7231 43.2839C46.7231 43.2839 56.5424 40.6694 65.723 44.4767Z" fill="#902067"/>
    <path d="M24.627 61.5C28.4342 52.3073 37.2173 47.2229 37.2173 47.2229C37.2173 47.2229 39.8318 57.0301 36.0245 66.2229C32.2173 75.4157 23.4343 80.5 23.4343 80.5C23.4343 80.5 20.8319 70.6808 24.627 61.5Z" fill="#902067"/>
    <path d="M43.9882 14.7771C47.7954 5.58431 56.5785 0.5 56.5785 0.5C56.5785 0.5 59.193 10.3073 55.3858 19.5C51.5786 28.6928 42.7955 33.7771 42.7955 33.7771C42.7955 33.7771 40.181 23.9699 43.9882 14.7771Z" fill="#902067"/>
</svg>
