<svg width="32" height="33" viewBox="0 0 32 33" fill="none" xmlns="http://www.w3.org/2000/svg">
    <rect y="0.757812" width="32" height="32" rx="16" fill="#902067"/>
    <path d="M16 10.2036C18.1205 10.2036 18.4096 10.2036 19.2771 10.2036C20.0482 10.2036 20.4337 10.3964 20.7229 10.4928C21.1084 10.6855 21.3976 10.7819 21.6867 11.0711C21.9759 11.3602 22.1687 11.6494 22.2651 12.0349C22.3614 12.3241 22.4578 12.7096 22.5542 13.4807C22.5542 14.3482 22.5542 14.5409 22.5542 16.7578C22.5542 18.9747 22.5542 19.1675 22.5542 20.0349C22.5542 20.806 22.3614 21.1915 22.2651 21.4807C22.0723 21.8662 21.9759 22.1554 21.6867 22.4446C21.3976 22.7337 21.1084 22.9265 20.7229 23.0229C20.4337 23.1193 20.0482 23.2156 19.2771 23.312C18.4096 23.312 18.2169 23.312 16 23.312C13.7831 23.312 13.5904 23.312 12.7229 23.312C11.9518 23.312 11.5663 23.1193 11.2771 23.0229C10.8916 22.8301 10.6024 22.7337 10.3133 22.4446C10.0241 22.1554 9.83133 21.8662 9.73494 21.4807C9.63855 21.1915 9.54217 20.806 9.44578 20.0349C9.44578 19.1675 9.44578 18.9747 9.44578 16.7578C9.44578 14.5409 9.44578 14.3482 9.44578 13.4807C9.44578 12.7096 9.63855 12.3241 9.73494 12.0349C9.92771 11.6494 10.0241 11.3602 10.3133 11.0711C10.6024 10.7819 10.8916 10.5891 11.2771 10.4928C11.5663 10.3964 11.9518 10.3 12.7229 10.2036C13.5904 10.2036 13.8795 10.2036 16 10.2036ZM16 8.75781C13.7831 8.75781 13.5904 8.75781 12.7229 8.75781C11.8554 8.75781 11.2771 8.95058 10.7952 9.14336C10.3133 9.33613 9.83133 9.62528 9.3494 10.1072C8.86747 10.5891 8.6747 10.9747 8.38554 11.553C8.19277 12.0349 8.09639 12.6132 8 13.4807C8 14.3482 8 14.6373 8 16.7578C8 18.9747 8 19.1675 8 20.0349C8 20.9024 8.19277 21.4807 8.38554 21.9626C8.57831 22.4446 8.86747 22.9265 9.3494 23.4084C9.83133 23.8903 10.2169 24.0831 10.7952 24.3723C11.2771 24.565 11.8554 24.6614 12.7229 24.7578C13.5904 24.7578 13.8795 24.7578 16 24.7578C18.1205 24.7578 18.4096 24.7578 19.2771 24.7578C20.1446 24.7578 20.7229 24.565 21.2048 24.3723C21.6867 24.1795 22.1687 23.8903 22.6506 23.4084C23.1325 22.9265 23.3253 22.5409 23.6145 21.9626C23.8072 21.4807 23.9036 20.9024 24 20.0349C24 19.1675 24 18.8783 24 16.7578C24 14.6373 24 14.3482 24 13.4807C24 12.6132 23.8072 12.0349 23.6145 11.553C23.4217 11.0711 23.1325 10.5891 22.6506 10.1072C22.1687 9.62528 21.7831 9.43251 21.2048 9.14336C20.7229 8.95058 20.1446 8.8542 19.2771 8.75781C18.4096 8.75781 18.2169 8.75781 16 8.75781Z" fill="#FBFBFB"/>
    <path d="M16 12.6132C13.6867 12.6132 11.8554 14.4446 11.8554 16.7578C11.8554 19.0711 13.6867 20.9024 16 20.9024C18.3133 20.9024 20.1446 19.0711 20.1446 16.7578C20.1446 14.4446 18.3133 12.6132 16 12.6132ZM16 19.4566C14.5542 19.4566 13.3012 18.3 13.3012 16.7578C13.3012 15.312 14.4578 14.059 16 14.059C17.4458 14.059 18.6988 15.2156 18.6988 16.7578C18.6988 18.2036 17.4458 19.4566 16 19.4566Z" fill="#FBFBFB"/>
    <path d="M20.241 13.4807C20.7733 13.4807 21.2048 13.0492 21.2048 12.5168C21.2048 11.9845 20.7733 11.553 20.241 11.553C19.7086 11.553 19.2771 11.9845 19.2771 12.5168C19.2771 13.0492 19.7086 13.4807 20.241 13.4807Z" fill="#FBFBFB"/>
</svg>
