<svg width="24" height="24" viewBox="0 0 24 24" fill="none" xmlns="http://www.w3.org/2000/svg">
    <path fill-rule="evenodd" clip-rule="evenodd" d="M12 2.75C7.99594 2.75 4.75 5.99594 4.75 10C4.75 10.9073 5.17155 12.0709 5.90354 13.371C6.6242 14.651 7.59493 15.9758 8.58078 17.1823C9.56431 18.386 10.5499 19.4563 11.2906 20.2264C11.5656 20.5124 11.8063 20.7564 12 20.9499C12.1937 20.7564 12.4344 20.5124 12.7094 20.2264C13.4501 19.4563 14.4357 18.386 15.4192 17.1823C16.4051 15.9758 17.3758 14.651 18.0965 13.371C18.8284 12.0709 19.25 10.9073 19.25 10C19.25 5.99594 16.0041 2.75 12 2.75ZM11.4838 22.5441C11.484 22.5443 11.4841 22.5444 12 22L11.4838 22.5441ZM12.5166 22.5437L12.518 22.5424L12.523 22.5377L12.5414 22.5201L12.611 22.4532C12.6714 22.3948 12.7592 22.3093 12.8706 22.1993C13.0934 21.9794 13.4105 21.6614 13.7906 21.2662C14.5499 20.4767 15.5643 19.3754 16.5808 18.1314C17.5949 16.8902 18.6242 15.4911 19.4035 14.1069C20.1716 12.7428 20.75 11.3018 20.75 10C20.75 5.16751 16.8325 1.25 12 1.25C7.16751 1.25 3.25 5.16751 3.25 10C3.25 11.3018 3.82845 12.7428 4.59646 14.1069C5.3758 15.4911 6.40507 16.8902 7.41922 18.1314C8.43569 19.3754 9.45014 20.4767 10.2094 21.2662C10.5895 21.6614 10.9066 21.9794 11.1294 22.1993C11.2408 22.3093 11.3286 22.3948 11.389 22.4532L11.4586 22.5201L11.477 22.5377L11.4838 22.5441L12 23.0333L12.5166 22.5437ZM12 22L12.5166 22.5437C12.5164 22.5439 12.5159 22.5444 12 22ZM12 8.25C11.0335 8.25 10.25 9.0335 10.25 10C10.25 10.9665 11.0335 11.75 12 11.75C12.9665 11.75 13.75 10.9665 13.75 10C13.75 9.0335 12.9665 8.25 12 8.25Z" fill="#222222"/>
</svg>
