<svg width="122" height="32" viewBox="0 0 122 32" fill="none" xmlns="http://www.w3.org/2000/svg">
    <path d="M49.7742 29.3662C49.2958 29.103 48.9208 28.7403 48.649 28.2765C48.3773 27.8127 48.2422 27.2911 48.2422 26.7086C48.2422 26.126 48.3789 25.6045 48.6538 25.1407C48.9287 24.6769 49.3038 24.3142 49.7821 24.051C50.2604 23.7878 50.796 23.6562 51.3888 23.6562C51.8703 23.6562 52.3089 23.7413 52.7062 23.9098C53.1035 24.0799 53.4388 24.3255 53.7137 24.6464L53.0081 25.3156C52.5838 24.8518 52.0594 24.6207 51.438 24.6207C51.036 24.6207 50.6736 24.709 50.3558 24.8871C50.0364 25.0653 49.7885 25.3124 49.6089 25.6286C49.4293 25.9447 49.3403 26.3042 49.3403 26.7054C49.3403 27.1066 49.4293 27.4661 49.6089 27.7822C49.7885 28.0984 50.0364 28.3455 50.3558 28.5236C50.6752 28.7018 51.036 28.79 51.438 28.79C52.0594 28.79 52.5822 28.5557 53.0081 28.0871L53.7137 28.766C53.4388 29.0885 53.1019 29.3341 52.703 29.5026C52.3025 29.6727 51.8623 29.7561 51.3808 29.7561C50.788 29.7609 50.2525 29.6293 49.7742 29.3662Z" fill="#222222"/>
    <path d="M60.2801 23.7429L57.7279 28.5316C57.5039 28.9553 57.2369 29.2731 56.927 29.4849C56.6171 29.6967 56.2802 29.8026 55.9163 29.8026C55.6255 29.8026 55.3362 29.7401 55.0518 29.6165L55.3203 28.7515C55.5492 28.8253 55.7399 28.8622 55.8908 28.8622C56.2436 28.8622 56.5345 28.6793 56.7633 28.3118L56.8555 28.1673L54.513 23.7429H55.6795L57.4164 27.2269L59.2043 23.7429H60.2801Z" fill="#222222"/>
    <path d="M66.7751 23.7429V29.6759H65.7008V24.6753H62.6544V29.6759H61.5801V23.7429H66.7751Z" fill="#222222"/>
    <path d="M73.1208 28.7531V29.6759H68.7156V23.7429H73.0032V24.6673H69.8057V26.2095H72.6424V27.1162H69.8057V28.7531H73.1208Z" fill="#222222"/>
    <path d="M78.3824 23.9981C78.7606 24.1682 79.0498 24.4105 79.2517 24.7266C79.4535 25.0428 79.5536 25.4183 79.5536 25.8532C79.5536 26.2833 79.4535 26.6572 79.2517 26.9766C79.0498 27.2959 78.7606 27.5399 78.3824 27.71C78.0042 27.8801 77.5608 27.9635 77.0523 27.9635H75.7269V29.6759H74.6351V23.7429H77.0523C77.5608 23.7429 78.0042 23.8279 78.3824 23.9981ZM78.0852 26.7262C78.3315 26.5224 78.4539 26.2319 78.4539 25.8532C78.4539 25.4745 78.3315 25.184 78.0852 24.9802C77.8389 24.7764 77.4781 24.6753 77.003 24.6753H75.7269V27.0311H77.003C77.4781 27.0311 77.8389 26.93 78.0852 26.7262Z" fill="#222222"/>
    <path d="M86.349 29.6759L86.341 25.7441L84.4118 28.9986H83.9239L81.9946 25.7954V29.6759H80.9617V23.7429H81.8596L84.1845 27.6682L86.4841 23.7429H87.374L87.3899 29.6759H86.349Z" fill="#222222"/>
    <path d="M93.335 28.3038H90.3966L89.8181 29.6759H88.693L91.3374 23.7429H92.4117L95.064 29.6759H93.923L93.335 28.3038ZM92.9742 27.4388L91.8666 24.8454L90.7669 27.4388H92.9742Z" fill="#222222"/>
    <path d="M100.111 23.9981C100.489 24.1682 100.779 24.4105 100.981 24.7266C101.182 25.0428 101.282 25.4183 101.282 25.8532C101.282 26.2833 101.182 26.6572 100.981 26.9766C100.779 27.2959 100.489 27.5399 100.111 27.71C99.733 27.8801 99.2896 27.9635 98.7811 27.9635H97.4557V29.6759H96.364V23.7429H98.7811C99.2912 23.7429 99.7346 23.8279 100.111 23.9981ZM99.8141 26.7262C100.06 26.5224 100.183 26.2319 100.183 25.8532C100.183 25.4745 100.06 25.184 99.8141 24.9802C99.5677 24.7764 99.207 24.6753 98.7318 24.6753H97.4557V27.0311H98.7318C99.207 27.0311 99.5677 26.93 99.8141 26.7262Z" fill="#222222"/>
    <path d="M104.852 27.1756H103.76V29.6759H102.686V23.7429H103.76V26.2271H104.885L106.573 23.7429H107.73L105.724 26.6171L107.806 29.6759H106.573L104.852 27.1756Z" fill="#222222"/>
    <path d="M113.532 28.7531V29.6759H109.125V23.7429H113.414V24.6673H110.217V26.2095H113.053V27.1162H110.217V28.7531H113.532Z" fill="#222222"/>
    <path d="M119.555 24.6753H117.608V29.6759H116.526V24.6753H114.587V23.7429H119.555V24.6753Z" fill="#222222"/>
    <path d="M121.948 23.7429H120.858V29.6759H121.948V23.7429Z" fill="#222222"/>
    <path d="M16.8443 7.47854L14.6481 7.14795C14.8117 7.48656 14.9309 7.83641 15.004 8.19749C15.0787 8.56018 15.1153 8.9325 15.1153 9.31765V9.55356C15.1153 10.1907 15.0088 10.7957 14.7943 11.3702C14.5797 11.9447 14.1967 12.447 13.6437 12.8803C13.0907 13.312 12.3406 13.6554 11.395 13.9058C10.4495 14.1577 9.24805 14.2829 7.79237 14.2829C6.5544 14.2829 5.49918 14.2011 4.62673 14.0358C4.41696 14.2396 4.31207 14.4611 4.31207 14.697C4.31207 15.0436 4.51707 15.2891 4.92549 15.4336C5.33391 15.5796 5.90919 15.6598 6.64816 15.6759H10.5734C11.6954 15.6759 12.6266 15.7722 13.3704 15.9648C14.1141 16.1573 14.7085 16.4253 15.1518 16.7672C15.5952 17.109 15.9083 17.515 16.0926 17.982C16.2754 18.4506 16.3675 18.9593 16.3675 19.5098C16.3675 20.1709 16.2182 20.7583 15.9178 21.2734C15.6175 21.7886 15.1502 22.2267 14.5162 22.5894C13.8805 22.9505 13.0652 23.2265 12.0688 23.4159C11.0724 23.6052 9.87259 23.6983 8.47094 23.6983C5.54368 23.6983 3.38717 23.334 2.00618 22.607C0.623598 21.8801 -0.0438537 20.7487 0.00223241 19.2161H3.85757C3.85757 19.5226 3.93862 19.8034 4.1023 20.0602C4.26599 20.3154 4.52661 20.5385 4.88418 20.7262C5.24174 20.9156 5.70578 21.0632 6.27471 21.1691C6.84363 21.2751 7.53174 21.328 8.34222 21.328C9.64216 21.328 10.6179 21.1948 11.2679 20.9268C11.9179 20.6588 12.2436 20.2143 12.2436 19.5932C12.2436 19.4199 12.2039 19.2418 12.1276 19.0572C12.0498 18.8727 11.9274 18.7042 11.7589 18.5501C11.5921 18.3976 11.376 18.2709 11.1106 18.173C10.8452 18.0751 10.5273 18.0253 10.1523 18.0253H4.93026C3.44279 18.0173 2.34468 17.8055 1.6359 17.3882C0.927132 16.971 0.572746 16.3307 0.572746 15.4657C0.572746 15.1816 0.614062 14.9232 0.69511 14.6873C0.776158 14.4514 0.885811 14.2332 1.02248 14.0326C1.15915 13.832 1.31489 13.6538 1.4897 13.4966C1.66451 13.3393 1.85044 13.1981 2.04432 13.0713C1.47539 12.6701 1.07651 12.1806 0.84767 11.6029C0.617239 11.0252 0.502822 10.3624 0.502822 9.61454V9.29679C0.502822 8.57302 0.617239 7.90381 0.84767 7.28596C1.0781 6.66811 1.47222 6.13532 2.0332 5.68758C2.59418 5.23984 3.34109 4.88838 4.27552 4.63161C5.20996 4.37645 6.38118 4.24807 7.79077 4.24807C8.45982 4.24807 9.07165 4.28177 9.62468 4.34756C10.1777 4.41497 10.6878 4.50644 11.1551 4.62519H16.8443V7.47854ZM7.93221 11.7826C8.6092 11.7826 9.17177 11.712 9.61992 11.5708C10.0681 11.4296 10.4256 11.245 10.6942 11.0171C10.9628 10.7893 11.1535 10.5309 11.2663 10.2436C11.3791 9.95636 11.4363 9.66429 11.4363 9.36579V9.24864C11.4363 8.9341 11.3855 8.62598 11.2838 8.32267C11.1821 8.01936 10.9993 7.74815 10.7355 7.50903C10.4701 7.26991 10.1126 7.07413 9.66124 6.92488C9.20991 6.77564 8.62986 6.70021 7.92109 6.70021C7.45387 6.70021 7.01049 6.73712 6.58936 6.81254C6.16823 6.88797 5.79636 7.01636 5.47376 7.20091C5.14957 7.38546 4.89371 7.63581 4.70301 7.95035C4.51231 8.26489 4.41696 8.66609 4.41696 9.15396V9.25987C4.41696 9.59046 4.47099 9.90661 4.58064 10.2099C4.68871 10.5132 4.87623 10.7796 5.14162 11.0123C5.40701 11.245 5.76458 11.4312 6.2159 11.5724C6.66723 11.712 7.23933 11.7826 7.93221 11.7826Z" fill="#222222"/>
    <path d="M31.1182 18.4956V16.3339C31.1182 16.2489 31.0086 16.2184 30.9657 16.2922C30.7893 16.5955 30.5604 16.8812 30.2776 17.1459C29.9041 17.4958 29.4655 17.7991 28.9633 18.0543C28.4611 18.3094 27.9081 18.5084 27.3042 18.6496C26.7003 18.7909 26.071 18.8615 25.4179 18.8615C24.5073 18.8615 23.7079 18.7925 23.023 18.6561C22.338 18.518 21.7485 18.3319 21.2526 18.096C20.7584 17.8601 20.3516 17.5873 20.0322 17.2759C19.7127 16.9662 19.4601 16.6372 19.2725 16.2906C19.085 15.9455 18.9547 15.5925 18.8816 15.2346C18.8069 14.8767 18.7703 14.5333 18.7703 14.2027C18.7703 13.6138 18.8768 13.0521 19.0914 12.5225C19.3059 11.9913 19.673 11.5259 20.1958 11.1247C20.7171 10.7235 21.4163 10.4058 22.292 10.1699C23.1676 9.93395 24.2721 9.81519 25.6038 9.81519C26.2109 9.81519 26.7925 9.8521 27.3503 9.92752C27.9065 10.0013 28.4246 10.0928 28.9029 10.1987C29.3829 10.3047 29.8103 10.417 30.187 10.5357C30.5096 10.6369 30.7829 10.7283 31.0054 10.8118C31.0594 10.8326 31.1151 10.7909 31.1151 10.7331V10.3111C31.1151 9.83124 31.0578 9.3835 30.945 8.96625C30.8322 8.549 30.6256 8.18952 30.3252 7.88621C30.0249 7.5829 29.6165 7.34539 29.0984 7.17208C28.5803 6.99876 27.9129 6.91209 27.0944 6.91209C26.3555 6.91209 25.7468 6.9795 25.2717 7.11269C24.7965 7.24589 24.4151 7.41761 24.1275 7.62623C23.8398 7.83486 23.6316 8.06755 23.5029 8.32272C23.3742 8.57788 23.2868 8.83145 23.2407 9.0834H19.3393C19.3854 8.76083 19.4616 8.41901 19.5665 8.05632C19.6714 7.69524 19.8383 7.33256 20.0687 6.97148C20.2975 6.61039 20.5979 6.26376 20.9682 5.93317C21.3385 5.60258 21.8089 5.3121 22.381 5.06015C22.9531 4.8082 23.638 4.60759 24.4373 4.45835C25.2351 4.3091 26.1759 4.23368 27.2581 4.23368C28.3801 4.23368 29.3527 4.32515 30.179 4.50488C31.0038 4.68623 31.7126 4.93337 32.3054 5.24791C32.8965 5.56245 33.3796 5.93637 33.7531 6.36807C34.1265 6.80136 34.4221 7.26836 34.6414 7.77227C34.8592 8.27618 35.0101 8.80416 35.0912 9.35942C35.1738 9.91308 35.2135 10.47 35.2135 11.0284V18.4956H31.1182ZM26.6098 16.1718C27.3884 16.1718 28.0543 16.0659 28.6073 15.8541C29.1604 15.6422 29.6133 15.3903 29.9677 15.0998C30.3221 14.8093 30.5843 14.506 30.7734 14.2027C31.0563 13.7486 31.1071 13.2559 31.1166 13.0922C31.1182 13.0569 31.1008 13.028 31.069 13.0136C30.8862 12.9317 30.6367 12.837 30.3237 12.7295C29.9804 12.6108 29.591 12.5 29.1556 12.3925C28.7202 12.2866 28.2577 12.1967 27.7714 12.1213C27.2851 12.0475 26.8084 12.009 26.3412 12.009C25.5704 12.009 24.9554 12.0796 24.4961 12.2208C24.0369 12.362 23.6888 12.5369 23.4505 12.7456C23.2121 12.9542 23.0564 13.174 22.9833 13.4067C22.9086 13.6394 22.872 13.8449 22.872 14.0262C22.872 14.2236 22.9149 14.4451 23.0007 14.6922C23.0866 14.9393 23.2614 15.1736 23.5268 15.3935C23.7921 15.6134 24.1688 15.7979 24.6598 15.9488C25.1493 16.0964 25.7993 16.1718 26.6098 16.1718Z" fill="#222222"/>
    <path d="M90.574 18.4956V16.3339C90.574 16.2489 90.4643 16.2184 90.4214 16.2922C90.245 16.5955 90.0162 16.8812 89.7317 17.1459C89.3583 17.4958 88.9197 17.7991 88.4175 18.0543C87.9153 18.3094 87.3623 18.5084 86.7584 18.6496C86.1545 18.7909 85.5252 18.8615 84.872 18.8615C83.9614 18.8615 83.1621 18.7925 82.4771 18.6561C81.7922 18.518 81.201 18.3319 80.7068 18.096C80.2126 17.8601 79.8057 17.5873 79.4863 17.2759C79.1669 16.9662 78.9142 16.6372 78.7267 16.2906C78.5392 15.9455 78.4089 15.5925 78.3358 15.2346C78.2611 14.8767 78.2245 14.5333 78.2245 14.2027C78.2245 13.6138 78.331 13.0521 78.5455 12.5225C78.7601 11.9913 79.1272 11.5259 79.65 11.1247C80.1728 10.7235 80.8705 10.4058 81.7461 10.1699C82.6217 9.93395 83.7262 9.81519 85.058 9.81519C85.665 9.81519 86.2467 9.8521 86.8045 9.92752C87.3607 10.0013 87.8787 10.0928 88.3571 10.1987C88.837 10.3047 89.2645 10.417 89.6427 10.5357C89.9653 10.6369 90.2387 10.7283 90.4612 10.8118C90.5152 10.8326 90.5708 10.7909 90.5708 10.7331V10.3111C90.5708 9.83124 90.5136 9.3835 90.4008 8.96625C90.2879 8.549 90.0813 8.18952 89.781 7.88621C89.4806 7.5829 89.0722 7.34539 88.5541 7.17208C88.0361 6.99876 87.3686 6.91209 86.5502 6.91209C85.8096 6.91209 85.2026 6.9795 84.7274 7.11269C84.2523 7.24589 83.8708 7.41761 83.5832 7.62623C83.2956 7.83486 83.0874 8.06755 82.9587 8.32272C82.8299 8.57788 82.7425 8.83145 82.6964 9.0834H78.795C78.8411 8.76083 78.9174 8.41901 79.0223 8.05632C79.1272 7.69524 79.294 7.33256 79.5245 6.97148C79.7533 6.61039 80.0536 6.26376 80.4239 5.93317C80.7942 5.60258 81.2646 5.3121 81.8367 5.06015C82.4088 4.8082 83.0937 4.60759 83.8915 4.45835C84.6893 4.3091 85.6301 4.23368 86.7123 4.23368C87.8342 4.23368 88.8068 4.32515 89.6332 4.50488C90.4596 4.68623 91.1667 4.93337 91.7595 5.24791C92.3507 5.56245 92.8338 5.93637 93.2072 6.36807C93.5807 6.80136 93.8763 7.26836 94.0956 7.77227C94.3133 8.27618 94.4643 8.80416 94.5453 9.35942C94.628 9.91308 94.6677 10.47 94.6677 11.0284V18.4956H90.574ZM86.0639 16.1718C86.8426 16.1718 87.5085 16.0659 88.0615 15.8541C88.6145 15.6422 89.0674 15.3903 89.4218 15.0998C89.7762 14.8093 90.0384 14.506 90.2275 14.2027C90.5104 13.7486 90.5613 13.2559 90.5708 13.0922C90.5724 13.0569 90.5549 13.028 90.5231 13.0136C90.3404 12.9317 90.0909 12.837 89.7778 12.7295C89.4346 12.6108 89.0452 12.5 88.6098 12.3925C88.1743 12.2866 87.7119 12.1967 87.2256 12.1213C86.7393 12.0475 86.2626 12.009 85.7953 12.009C85.0246 12.009 84.4096 12.0796 83.9503 12.2208C83.491 12.362 83.143 12.5369 82.9046 12.7456C82.6663 12.9542 82.5121 13.174 82.4374 13.4067C82.3627 13.6394 82.3262 13.8449 82.3262 14.0262C82.3262 14.2236 82.3691 14.4451 82.4549 14.6922C82.5407 14.9393 82.7155 15.1736 82.9809 15.3935C83.2463 15.6134 83.6229 15.7979 84.114 15.9488C84.605 16.0964 85.255 16.1718 86.0639 16.1718Z" fill="#222222"/>
    <path d="M43.231 0H39.1309V18.4954H43.231V0Z" fill="#222222"/>
    <path d="M47.3549 18.4954V4.61225H51.455V6.86539C51.455 6.94884 51.5615 6.97933 51.6075 6.90872C51.8427 6.54604 52.1208 6.21545 52.4419 5.92016C52.8344 5.55908 53.2762 5.25257 53.7672 5.00061C54.2583 4.74866 54.7907 4.55768 55.3675 4.4293C55.9444 4.29931 56.5467 4.23512 57.1776 4.23512C58.0961 4.23512 58.8844 4.33141 59.5439 4.52398C60.2018 4.71656 60.7548 4.97493 61.203 5.29589C61.6511 5.61846 62.0071 5.99559 62.2709 6.42889C62.4981 6.8012 62.6809 7.18796 62.816 7.58916C62.8398 7.65977 62.932 7.66619 62.9654 7.59879C63.1879 7.14463 63.4675 6.72738 63.8076 6.34704C64.1938 5.91535 64.6435 5.54143 65.1568 5.22688C65.6701 4.91234 66.2375 4.66841 66.8573 4.49509C67.4754 4.32177 68.1318 4.23512 68.8247 4.23512C69.775 4.23512 70.5871 4.33622 71.2593 4.53521C71.9331 4.73581 72.4988 5.00863 72.9597 5.35527C73.419 5.70191 73.7845 6.10632 74.0578 6.57011C74.3296 7.0339 74.5361 7.53299 74.6776 8.06739C74.8174 8.60179 74.9096 9.15385 74.9525 9.72516C74.9954 10.2949 75.0177 10.8565 75.0177 11.4054V18.4938H70.9287V11.1101C70.9287 10.5356 70.8842 10.0012 70.7936 9.5053C70.7046 9.00941 70.5426 8.57772 70.3089 8.20701C70.0753 7.8379 69.7511 7.54743 69.3395 7.334C68.9264 7.12216 68.3972 7.01625 67.7504 7.01625C66.924 7.01625 66.2295 7.17191 65.6654 7.48164C65.0996 7.79297 64.6404 8.18615 64.2876 8.66117C63.9332 9.1378 63.2419 10.1504 63.2419 11.8515V18.4922H59.1418V11.5097C59.1418 11.1326 59.1339 10.7587 59.118 10.3895C59.1021 10.0204 59.0592 9.66899 58.9892 9.33359C58.9193 8.99979 58.816 8.69006 58.6794 8.40761C58.5427 8.12516 58.3536 7.88123 58.112 7.67582C57.8705 7.47201 57.5685 7.30992 57.2078 7.19277C56.8455 7.07562 56.4037 7.01625 55.8824 7.01625C55.1498 7.01625 54.511 7.16228 53.9675 7.45275C53.4224 7.74483 52.9663 8.11875 52.6008 8.57933C52.2353 9.0383 51.4566 10.0124 51.4566 11.8291V18.4938H47.3549V18.4954Z" fill="#222222"/>
    <path d="M98.5867 18.4954V4.61225H102.687V7.36449C102.687 7.45436 102.806 7.48004 102.843 7.39819C102.986 7.07884 103.162 6.7675 103.37 6.46419C103.663 6.03892 104.038 5.66179 104.497 5.3312C104.956 5.00061 105.509 4.73581 106.156 4.53521C106.803 4.33461 107.561 4.23512 108.433 4.23512C108.675 4.23512 108.885 4.23993 109.064 4.24635C109.244 4.25437 109.404 4.26561 109.549 4.28166C109.693 4.2977 109.827 4.31535 109.952 4.33461C110.076 4.35387 110.202 4.37955 110.326 4.41164L110.291 7.45435C110.026 7.39979 109.711 7.34844 109.345 7.3003C108.98 7.25376 108.508 7.22968 107.933 7.22968C107.006 7.22968 106.213 7.37251 105.555 7.65977C104.897 7.94703 104.354 8.31774 103.926 8.77511C103.497 9.23088 103.184 9.74281 102.986 10.3077C102.787 10.8742 102.688 11.4359 102.688 11.9944V18.4938H98.5867V18.4954Z" fill="#222222"/>
    <path d="M116.522 1.27422V4.52877C116.522 4.5753 116.559 4.61221 116.605 4.61221H121.743V7.3131H116.605C116.559 7.3131 116.522 7.35001 116.522 7.39655V12.9749C116.522 13.352 116.546 13.7259 116.592 14.095C116.638 14.4641 116.741 14.7963 116.902 15.0916C117.061 15.3869 117.294 15.6244 117.603 15.8057C117.91 15.9871 118.321 16.0769 118.834 16.0769C119.224 16.0769 119.569 16.0641 119.869 16.0352C120.168 16.0079 120.435 15.9726 120.668 15.9293C120.902 15.886 121.112 15.8394 121.299 15.7881C121.487 15.7367 121.662 15.6886 121.825 15.6404L122 18.0236C121.782 18.1183 121.536 18.2162 121.264 18.3189C120.991 18.4216 120.687 18.513 120.354 18.5965C120.018 18.6799 119.654 18.7457 119.262 18.7971C118.868 18.8484 118.447 18.8741 117.994 18.8741C117.145 18.8741 116.419 18.8035 115.815 18.6623C115.211 18.5211 114.704 18.3189 114.291 18.0541C113.878 17.7909 113.549 17.4731 113.304 17.0992C113.058 16.7253 112.87 16.308 112.737 15.8491C112.605 15.3885 112.519 14.8894 112.479 14.3502C112.441 13.8126 112.421 13.2477 112.421 12.6571V1.27422H116.522Z" fill="#222222"/>
    <path d="M40.6579 23.0892C41.1601 24.3137 40.8153 25.62 40.8153 25.62C40.8153 25.62 39.6568 24.9427 39.1546 23.7183C38.6524 22.4938 38.9972 21.1875 38.9972 21.1875C38.9972 21.1875 40.1558 21.8663 40.6579 23.0892Z" fill="#902067"/>
    <path d="M43.2102 29.3126C43.7124 30.5371 43.3675 31.8434 43.3675 31.8434C43.3675 31.8434 42.209 31.1662 41.7068 29.9417C41.2047 28.7173 41.5495 27.4109 41.5495 27.4109C41.5495 27.4109 42.7096 28.0882 43.2102 29.3126Z" fill="#902067"/>
    <path d="M37.791 27.0451C39.0036 26.538 40.2956 26.8863 40.2956 26.8863C40.2956 26.8863 39.6249 28.0562 38.4124 28.5633C37.1998 29.0704 35.9062 28.7222 35.9062 28.7222C35.9062 28.7222 36.5785 27.5523 37.791 27.0451Z" fill="#902067"/>
    <path d="M43.9523 24.4679C45.1648 23.9608 46.4568 24.309 46.4568 24.309C46.4568 24.309 45.7862 25.4789 44.5736 25.9861C43.3611 26.4932 42.0675 26.1449 42.0675 26.1449C42.0675 26.1449 42.7413 24.975 43.9523 24.4679Z" fill="#902067"/>
    <path d="M38.4124 24.4679C39.6249 24.975 40.2956 26.1449 40.2956 26.1449C40.2956 26.1449 39.002 26.4932 37.7894 25.9861C36.5769 25.4789 35.9062 24.309 35.9062 24.309C35.9062 24.309 37.2014 23.9608 38.4124 24.4679Z" fill="#902067"/>
    <path d="M44.5753 27.0451C45.7878 27.5523 46.4584 28.7222 46.4584 28.7222C46.4584 28.7222 45.1649 29.0704 43.9523 28.5633C42.7398 28.0562 42.0691 26.8863 42.0691 26.8863C42.0691 26.8863 43.3643 26.538 44.5753 27.0451Z" fill="#902067"/>
    <path d="M39.1546 29.3126C39.6568 28.0882 40.8153 27.4109 40.8153 27.4109C40.8153 27.4109 41.1602 28.7173 40.658 29.9417C40.1558 31.1662 38.9973 31.8434 38.9973 31.8434C38.9973 31.8434 38.654 30.5355 39.1546 29.3126Z" fill="#902067"/>
    <path d="M41.7084 23.0892C42.2106 21.8647 43.3691 21.1875 43.3691 21.1875C43.3691 21.1875 43.7139 22.4938 43.2118 23.7183C42.7096 24.9427 41.5511 25.62 41.5511 25.62C41.5511 25.62 41.2062 24.3137 41.7084 23.0892Z" fill="#902067"/>
</svg>
