<svg width="42" height="30" viewBox="0 0 42 30" fill="none" xmlns="http://www.w3.org/2000/svg">
    <rect x="0.5" y="0.5" width="41" height="29" rx="1.5" fill="white" stroke="#DBDBDB"/>
    <path d="M13.1431 24.334V23.0895C13.1431 22.6125 12.8462 22.3014 12.3372 22.3014C12.0827 22.3014 11.8071 22.3843 11.6162 22.654C11.4677 22.4258 11.2557 22.3014 10.9376 22.3014C10.7255 22.3014 10.5134 22.3636 10.3438 22.5917V22.3428H9.89844V24.334H10.3438V23.2347C10.3438 22.8821 10.5346 22.7162 10.8315 22.7162C11.1284 22.7162 11.2769 22.9029 11.2769 23.2347V24.334H11.7222V23.2347C11.7222 22.8821 11.9343 22.7162 12.21 22.7162C12.5069 22.7162 12.6553 22.9029 12.6553 23.2347V24.334H13.1431ZM19.7384 22.3428H19.0174V21.7414H18.5721V22.3428H18.1691V22.7369H18.5721V23.6495C18.5721 24.1058 18.7629 24.3755 19.2719 24.3755C19.4627 24.3755 19.6748 24.3133 19.8233 24.2303L19.696 23.8569C19.5688 23.9399 19.4203 23.9607 19.3143 23.9607C19.1022 23.9607 19.0174 23.8362 19.0174 23.6288V22.7369H19.7384V22.3428ZM23.5133 22.3014C23.2588 22.3014 23.0891 22.4258 22.9831 22.5917V22.3428H22.5377V24.334H22.9831V23.214C22.9831 22.8821 23.1315 22.6954 23.4072 22.6954C23.4921 22.6954 23.5981 22.7162 23.6829 22.7369L23.8102 22.3221C23.7253 22.3014 23.5981 22.3014 23.5133 22.3014ZM17.8086 22.5088C17.5965 22.3636 17.2996 22.3014 16.9815 22.3014C16.4726 22.3014 16.1333 22.5503 16.1333 22.9443C16.1333 23.2762 16.3877 23.4629 16.8331 23.5251L17.0452 23.5458C17.2784 23.5873 17.4057 23.6495 17.4057 23.7532C17.4057 23.8984 17.236 24.0021 16.9391 24.0021C16.6422 24.0021 16.409 23.8984 16.2605 23.7947L16.0484 24.1266C16.2817 24.2925 16.5998 24.3755 16.9179 24.3755C17.5117 24.3755 17.851 24.1058 17.851 23.7325C17.851 23.3799 17.5753 23.1932 17.1512 23.131L16.9391 23.1103C16.7483 23.0895 16.5998 23.048 16.5998 22.9236C16.5998 22.7784 16.7483 22.6954 16.9815 22.6954C17.236 22.6954 17.4905 22.7992 17.6177 22.8614L17.8086 22.5088ZM29.6421 22.3014C29.3876 22.3014 29.2179 22.4258 29.1119 22.5917V22.3428H28.6665V24.334H29.1119V23.214C29.1119 22.8821 29.2603 22.6954 29.536 22.6954C29.6208 22.6954 29.7269 22.7162 29.8117 22.7369L29.9389 22.3221C29.8541 22.3014 29.7269 22.3014 29.6421 22.3014ZM23.9586 23.3384C23.9586 23.9399 24.3827 24.3755 25.0402 24.3755C25.3371 24.3755 25.5491 24.3133 25.7612 24.1473L25.5491 23.7947C25.3795 23.9192 25.2098 23.9814 25.0189 23.9814C24.6584 23.9814 24.4039 23.7325 24.4039 23.3384C24.4039 22.9651 24.6584 22.7162 25.0189 22.6954C25.2098 22.6954 25.3795 22.7577 25.5491 22.8821L25.7612 22.5295C25.5491 22.3636 25.3371 22.3014 25.0402 22.3014C24.3827 22.3014 23.9586 22.7369 23.9586 23.3384ZM28.0727 23.3384V22.3428H27.6274V22.5917C27.4789 22.4051 27.2669 22.3014 26.9912 22.3014C26.4186 22.3014 25.9733 22.7369 25.9733 23.3384C25.9733 23.9399 26.4186 24.3755 26.9912 24.3755C27.2881 24.3755 27.5002 24.2718 27.6274 24.0851V24.334H28.0727V23.3384ZM26.4398 23.3384C26.4398 22.9858 26.6731 22.6954 27.0548 22.6954C27.4153 22.6954 27.6698 22.9651 27.6698 23.3384C27.6698 23.691 27.4153 23.9814 27.0548 23.9814C26.6731 23.9607 26.4398 23.691 26.4398 23.3384ZM21.1169 22.3014C20.5231 22.3014 20.099 22.7162 20.099 23.3384C20.099 23.9607 20.5231 24.3755 21.1381 24.3755C21.435 24.3755 21.7319 24.2925 21.9652 24.1058L21.7531 23.7947C21.5834 23.9192 21.3714 24.0021 21.1593 24.0021C20.8836 24.0021 20.6079 23.8777 20.5443 23.5251H22.05V23.3592C22.0712 22.7162 21.6895 22.3014 21.1169 22.3014ZM21.1169 22.6747C21.3926 22.6747 21.5834 22.8406 21.6258 23.1518H20.5655C20.6079 22.8821 20.7988 22.6747 21.1169 22.6747ZM32.1657 23.3384V21.5547H31.7203V22.5917C31.5719 22.4051 31.3598 22.3014 31.0841 22.3014C30.5115 22.3014 30.0662 22.7369 30.0662 23.3384C30.0662 23.9399 30.5115 24.3755 31.0841 24.3755C31.381 24.3755 31.5931 24.2718 31.7203 24.0851V24.334H32.1657V23.3384ZM30.5327 23.3384C30.5327 22.9858 30.766 22.6954 31.1477 22.6954C31.5083 22.6954 31.7627 22.9651 31.7627 23.3384C31.7627 23.691 31.5083 23.9814 31.1477 23.9814C30.766 23.9607 30.5327 23.691 30.5327 23.3384ZM15.6455 23.3384V22.3428H15.2002V22.5917C15.0517 22.4051 14.8396 22.3014 14.564 22.3014C13.9914 22.3014 13.546 22.7369 13.546 23.3384C13.546 23.9399 13.9914 24.3755 14.564 24.3755C14.8608 24.3755 15.0729 24.2718 15.2002 24.0851V24.334H15.6455V23.3384ZM13.9914 23.3384C13.9914 22.9858 14.2246 22.6954 14.6064 22.6954C14.9669 22.6954 15.2214 22.9651 15.2214 23.3384C15.2214 23.691 14.9669 23.9814 14.6064 23.9814C14.2246 23.9607 13.9914 23.691 13.9914 23.3384Z" fill="black"/>
    <path d="M24.3442 7.21875H17.6641V18.9582H24.3442V7.21875Z" fill="#FF5F00"/>
    <path d="M18.0855 13.0918C18.0855 10.7066 19.2307 8.59098 20.9908 7.22206C19.6972 6.22649 18.0643 5.625 16.2829 5.625C12.0627 5.625 8.64844 8.96431 8.64844 13.0918C8.64844 17.2193 12.0627 20.5586 16.2829 20.5586C18.0643 20.5586 19.6972 19.9571 20.9908 18.9615C19.2307 17.6133 18.0855 15.477 18.0855 13.0918Z" fill="#EB001B"/>
    <path d="M33.358 13.0918C33.358 17.2193 29.9437 20.5586 25.7236 20.5586C23.9422 20.5586 22.3092 19.9571 21.0156 18.9615C22.797 17.5926 23.921 15.477 23.921 13.0918C23.921 10.7066 22.7758 8.59098 21.0156 7.22206C22.3092 6.22649 23.9422 5.625 25.7236 5.625C29.9437 5.625 33.358 8.98506 33.358 13.0918Z" fill="#F79E1B"/>
</svg>
