<svg width="13.5" height="13.5" viewBox="0 0 22 22" fill="none" xmlns="http://www.w3.org/2000/svg">
    <path fill-rule="evenodd" clip-rule="evenodd" d="M11 0.875C11.6213 0.875 12.125 1.37868 12.125 2V9.875H20C20.6213 9.875 21.125 10.3787 21.125 11C21.125 11.6213 20.6213 12.125 20 12.125H12.125V20C12.125 20.6213 11.6213 21.125 11 21.125C10.3787 21.125 9.875 20.6213 9.875 20V12.125H2C1.37868 12.125 0.875 11.6213 0.875 11C0.875 10.3787 1.37868 9.875 2 9.875H9.875V2C9.875 1.37868 10.3787 0.875 11 0.875Z" fill="#FBFBFB"/>
</svg>
