<svg width="22" height="22" viewBox="0 0 22 22" fill="none" xmlns="http://www.w3.org/2000/svg">
    <path d="M10.0625 1.83594C14.6058 1.83597 18.2891 5.51915 18.2891 10.0625C18.289 12.08 17.5596 13.9267 16.3545 15.3574L19.9629 18.9658C20.2381 19.2412 20.2382 19.6876 19.9629 19.9629C19.6876 20.2382 19.2412 20.2381 18.9658 19.9629L15.3584 16.3555C13.9277 17.5606 12.08 18.289 10.0625 18.2891C5.51915 18.2891 1.83597 14.6058 1.83594 10.0625C1.83594 5.51913 5.51913 1.83594 10.0625 1.83594ZM10.0625 3.24609C6.298 3.24609 3.24609 6.298 3.24609 10.0625C3.24613 13.827 6.29802 16.8789 10.0625 16.8789C11.9481 16.8789 13.6539 16.114 14.8887 14.876C16.1192 13.6422 16.8789 11.9417 16.8789 10.0625C16.8789 6.29802 13.827 3.24613 10.0625 3.24609Z" fill="#7A7A7A"/>
</svg>
