<svg width="43" height="55" viewBox="0 0 43 55" fill="none" xmlns="http://www.w3.org/2000/svg">
    <path fill-rule="evenodd" clip-rule="evenodd" d="M2.9605 33.2205C6.04704 38.819 14.8941 48.2523 19.2173 53.5238C20.6807 55.4233 22.1381 55.5334 23.6458 53.5995C27.9745 48.3026 37.0989 38.4081 39.9588 33.2205C46.2007 21.8981 42.6862 8.01401 30.7776 2.04404C25.3422 -0.680931 17.5751 -0.681762 12.1416 2.04404C0.467288 7.90062 -3.21258 22.0235 2.9605 33.2205ZM21.4598 12.6439C26.1438 12.6439 29.9408 16.4487 29.9408 21.1423C29.9408 25.8358 26.1438 29.6406 21.4598 29.6406C16.7758 29.6406 12.9787 25.8358 12.9787 21.1423C12.9787 16.4487 16.7758 12.6439 21.4598 12.6439Z" fill="#902067"/>
</svg>
