<svg width="42" height="30" viewBox="0 0 42 30" fill="none" xmlns="http://www.w3.org/2000/svg">
    <rect x="0.5" y="0.5" width="41" height="29" rx="1.5" fill="white" stroke="#DBDBDB"/>
    <path fill-rule="evenodd" clip-rule="evenodd" d="M13.28 19.8228H10.7356L8.82763 12.2405C8.73707 11.8917 8.54479 11.5833 8.26194 11.438C7.55606 11.0728 6.77823 10.7821 5.92969 10.6355V10.3436H10.0285C10.5942 10.3436 11.0185 10.7821 11.0892 11.2914L12.0791 16.7608L14.6223 10.3436H17.096L13.28 19.8228ZM18.5106 19.8227H16.1076L18.0863 10.3435H20.4892L18.5106 19.8227ZM23.5977 12.9696C23.6684 12.4591 24.0927 12.1672 24.5877 12.1672C25.3655 12.0939 26.2128 12.2405 26.9199 12.6044L27.3442 10.5635C26.6371 10.2716 25.8593 10.125 25.1534 10.125C22.8211 10.125 21.1241 11.438 21.1241 13.2603C21.1241 14.6466 22.3262 15.3745 23.1747 15.813C24.0927 16.2503 24.4463 16.5422 24.3756 16.9794C24.3756 17.6353 23.6684 17.9272 22.9626 17.9272C22.114 17.9272 21.2655 17.7086 20.4889 17.3434L20.0646 19.3856C20.9132 19.7495 21.8312 19.8961 22.6797 19.8961C25.2948 19.9681 26.9199 18.6564 26.9199 16.6875C26.9199 14.2081 23.5977 14.0628 23.5977 12.9696V12.9696ZM35.3293 19.8227L33.4213 10.3435H31.3719C30.9477 10.3435 30.5234 10.6354 30.382 11.0727L26.8489 19.8227H29.3225L29.8163 18.4377H32.8556L33.1385 19.8227H35.3293ZM31.7262 12.896L32.4321 16.4685H30.4534L31.7262 12.896Z" fill="#172B85"/>
</svg>
