<svg width="32" height="33" viewBox="0 0 32 33" fill="none" xmlns="http://www.w3.org/2000/svg">
    <rect y="0.757812" width="32" height="32" rx="16" fill="#902067"/>
    <path d="M22.3415 10.4109C20.761 8.83594 18.6537 7.96094 16.4293 7.96094C11.8049 7.96094 8.05854 11.6943 8.05854 16.3026C8.05854 17.7609 8.46829 19.2193 9.17073 20.4443L8 24.7609L12.4488 23.5943C13.6781 24.2359 15.0244 24.5859 16.4293 24.5859C21.0537 24.5859 24.8 20.8526 24.8 16.2443C24.7415 14.0859 23.922 11.9859 22.3415 10.4109ZM20.4683 19.2776C20.2927 19.7443 19.4732 20.2109 19.0634 20.2693C18.7122 20.3276 18.2439 20.3276 17.7756 20.2109C17.4829 20.0943 17.0732 19.9776 16.6049 19.7443C14.4976 18.8693 13.1512 16.7693 13.0341 16.5943C12.9171 16.4776 12.1561 15.4859 12.1561 14.4359C12.1561 13.3859 12.6829 12.9193 12.8585 12.6859C13.0341 12.4526 13.2683 12.4526 13.4439 12.4526C13.561 12.4526 13.7366 12.4526 13.8537 12.4526C13.9707 12.4526 14.1463 12.3943 14.322 12.8026C14.4976 13.2109 14.9073 14.2609 14.9659 14.3193C15.0244 14.4359 15.0244 14.5526 14.9659 14.6693C14.9073 14.7859 14.8488 14.9026 14.7317 15.0193C14.6146 15.1359 14.4976 15.3109 14.439 15.3693C14.3219 15.4859 14.2049 15.6026 14.322 15.7776C14.439 16.0109 14.8488 16.6526 15.4927 17.2359C16.3122 17.9359 16.9561 18.1693 17.1902 18.2859C17.4244 18.4026 17.5415 18.3443 17.6585 18.2276C17.7756 18.1109 18.1854 17.6443 18.3024 17.4109C18.4195 17.1776 18.5951 17.2359 18.7707 17.2943C18.9463 17.3526 20 17.8776 20.1756 17.9943C20.4098 18.1109 20.5268 18.1693 20.5854 18.2276C20.6439 18.4026 20.6439 18.8109 20.4683 19.2776Z" fill="#FBFBFB"/>
</svg>
